<svg id="svg" version="1.1" xmlns="http://www.w3.org/2000/svg" xmlns:xlink="http://www.w3.org/1999/xlink" width="400" height="312.7819548872181" viewBox="0, 0, 400,312.7819548872181" transform="matrix(-1,0,0,1,0,0)"><g id="svgg"><path id="path0" d="M10.955 10.898 L 0.000 21.796 0.000 51.119 L 0.000 80.441 17.326 97.752 C 26.856 107.273,34.768 115.127,34.910 115.206 C 35.140 115.335,35.167 118.890,35.167 149.341 L 35.167 183.332 26.834 191.666 C 22.251 196.250,18.426 200.000,18.334 200.000 C 18.242 200.000,18.167 200.058,18.167 200.130 C 18.167 200.201,17.923 200.520,17.625 200.838 L 17.083 201.417 17.083 231.333 C 17.083 247.787,17.106 263.402,17.134 266.033 L 17.186 270.815 23.862 277.491 C 27.533 281.163,30.604 284.167,30.685 284.167 C 30.767 284.167,30.833 284.233,30.833 284.314 C 30.833 284.449,33.844 287.477,36.542 290.054 C 37.160 290.645,37.667 291.169,37.667 291.217 C 37.667 291.265,38.537 292.174,39.601 293.236 L 41.536 295.167 100.250 295.167 C 152.287 295.167,158.975 295.195,159.060 295.417 C 159.113 295.554,159.271 295.667,159.411 295.667 C 159.552 295.667,159.667 295.742,159.667 295.833 C 159.667 295.925,163.416 299.750,167.998 304.333 L 176.330 312.667 269.377 312.667 L 362.424 312.667 371.337 303.748 L 380.250 294.829 380.333 243.763 L 380.417 192.696 389.667 183.444 C 394.754 178.356,399.160 173.931,399.458 173.611 L 400.000 173.029 400.000 106.679 L 400.000 40.328 391.273 31.623 C 386.473 26.834,381.804 22.184,380.898 21.288 C 379.991 20.392,378.752 19.155,378.144 18.538 C 377.535 17.921,376.598 16.996,376.060 16.481 C 375.523 15.967,374.766 15.198,374.379 14.773 C 373.992 14.348,373.604 14.000,373.518 14.000 C 373.432 14.000,373.336 13.926,373.306 13.835 C 373.269 13.727,356.000 13.654,323.172 13.624 L 273.094 13.578 272.052 14.462 C 271.478 14.948,270.951 15.449,270.880 15.575 C 270.720 15.857,267.180 19.486,266.116 20.458 L 265.341 21.167 220.830 21.167 L 176.319 21.167 165.951 10.831 C 160.249 5.146,155.465 0.384,155.319 0.248 C 155.087 0.029,147.146 -0.000,88.483 -0.000 L 21.910 0.000 10.955 10.898 M154.718 2.935 C 155.883 4.215,174.944 23.205,175.218 23.359 C 175.359 23.438,195.862 23.483,220.959 23.459 L 266.444 23.417 270.125 19.708 L 273.806 16.000 322.968 16.000 L 372.129 16.000 384.768 28.664 C 391.720 35.629,397.451 41.461,397.504 41.622 C 397.557 41.784,397.593 42.217,397.585 42.583 C 397.576 42.950,397.554 72.264,397.535 107.727 L 397.500 172.203 387.920 181.810 C 382.650 187.094,378.229 191.567,378.094 191.750 C 377.878 192.042,377.847 198.337,377.842 242.417 C 377.836 290.178,377.821 292.769,377.543 293.115 C 377.200 293.542,370.895 300.269,369.917 301.251 C 369.336 301.834,364.424 307.091,362.093 309.625 L 361.288 310.500 269.602 310.499 L 177.917 310.497 177.000 309.642 C 176.496 309.172,174.921 307.694,173.500 306.358 C 172.079 305.022,170.466 303.513,169.915 303.006 C 169.365 302.499,167.752 300.989,166.332 299.652 C 164.912 298.315,162.700 296.235,161.417 295.031 L 159.083 292.842 101.417 292.836 C 69.700 292.832,43.450 292.782,43.083 292.724 C 42.406 292.617,20.353 270.977,19.755 269.833 C 19.587 269.511,19.497 206.236,19.660 202.423 C 19.664 202.335,23.637 198.285,28.490 193.423 C 36.608 185.291,37.329 184.523,37.497 183.833 C 37.628 183.297,37.667 173.312,37.632 148.833 L 37.583 114.583 19.957 96.977 L 2.331 79.371 2.348 51.810 C 2.357 36.652,2.414 23.895,2.474 23.462 C 2.591 22.616,4.484 20.644,18.793 6.458 L 23.122 2.167 88.571 2.167 L 154.019 2.167 154.718 2.935 M117.061 8.708 C 115.393 10.173,115.766 12.277,117.806 12.911 C 118.964 13.271,120.833 11.935,120.833 10.748 C 120.833 8.665,118.530 7.419,117.061 8.708 M124.640 8.421 C 122.615 9.521,123.426 13.000,125.707 13.000 C 126.557 13.000,127.627 12.178,128.078 11.178 C 128.896 9.363,126.477 7.423,124.640 8.421 M131.572 8.875 C 130.285 10.118,130.599 11.955,132.232 12.730 C 134.188 13.659,136.431 11.340,135.328 9.529 C 134.342 7.913,132.840 7.651,131.572 8.875 M138.847 8.940 C 138.066 9.828,137.949 10.649,138.459 11.663 C 139.673 14.080,143.262 12.752,142.759 10.072 C 142.393 8.120,140.143 7.469,138.847 8.940 M146.198 8.902 C 145.105 10.087,145.142 11.432,146.293 12.337 C 148.723 14.249,151.689 10.945,149.420 8.855 C 148.302 7.824,147.177 7.840,146.198 8.902 M231.614 14.045 C 230.733 14.966,230.052 15.782,230.100 15.860 C 230.147 15.937,231.176 16.001,232.385 16.001 L 234.583 16.003 236.208 14.312 C 237.102 13.382,237.833 12.575,237.833 12.519 C 237.833 12.463,236.794 12.406,235.524 12.394 L 233.215 12.371 231.614 14.045 M240.147 12.562 C 240.009 12.665,239.847 12.881,239.787 13.042 C 239.726 13.202,239.562 13.333,239.422 13.333 C 239.282 13.333,239.167 13.402,239.167 13.485 C 239.167 13.569,238.699 14.112,238.128 14.693 L 237.089 15.748 237.586 15.854 C 237.860 15.913,238.934 15.969,239.975 15.980 L 241.866 16.000 242.350 15.482 C 242.616 15.198,242.833 14.929,242.833 14.885 C 242.833 14.840,243.321 14.322,243.917 13.732 C 244.512 13.142,245.000 12.604,245.000 12.538 C 244.999 12.330,240.426 12.353,240.147 12.562 M246.365 13.542 C 245.709 14.206,244.984 14.974,244.755 15.247 L 244.339 15.745 244.711 15.884 C 244.916 15.960,245.983 15.999,247.083 15.970 L 249.083 15.917 250.455 14.538 C 252.665 12.314,252.673 12.333,249.599 12.333 L 247.559 12.333 246.365 13.542 M253.067 14.034 C 251.124 16.036,251.077 15.957,254.223 15.983 L 256.195 16.000 257.139 15.028 C 257.659 14.494,258.250 13.875,258.453 13.653 C 258.656 13.431,258.981 13.100,259.174 12.917 L 259.527 12.583 258.305 12.480 C 257.633 12.423,256.551 12.367,255.900 12.355 L 254.717 12.333 253.067 14.034 M225.053 13.296 C 224.611 13.733,223.912 14.465,223.500 14.921 L 222.750 15.750 223.583 15.860 C 224.042 15.921,225.080 15.977,225.891 15.985 L 227.365 16.000 229.013 14.292 C 229.920 13.352,230.662 12.565,230.664 12.542 C 230.665 12.519,229.584 12.500,228.261 12.500 L 225.856 12.500 225.053 13.296 M260.189 14.114 C 259.362 15.001,258.722 15.789,258.769 15.864 C 258.815 15.939,259.877 16.000,261.128 16.000 L 263.402 16.000 265.035 14.331 C 265.932 13.413,266.667 12.625,266.667 12.581 C 266.667 12.536,265.548 12.500,264.180 12.500 L 261.694 12.500 260.189 14.114 M20.664 14.064 C 19.689 14.731,19.312 15.387,19.355 16.338 L 19.393 17.168 14.530 22.065 L 9.667 26.961 9.629 31.689 C 9.608 34.289,9.589 44.277,9.587 53.885 L 9.583 71.352 9.202 71.640 C 7.061 73.255,8.466 76.367,11.223 76.117 C 13.371 75.922,14.202 73.436,12.674 71.777 L 12.036 71.083 12.060 49.645 L 12.083 28.207 12.710 27.298 C 13.054 26.797,13.804 25.945,14.376 25.404 C 14.949 24.863,16.673 23.211,18.208 21.733 C 20.868 19.173,21.036 19.042,21.791 18.951 C 23.469 18.747,24.500 17.715,24.500 16.237 C 24.500 14.330,22.189 13.020,20.664 14.064 M390.121 40.276 C 390.074 40.520,390.026 46.576,390.014 53.734 L 389.993 66.750 390.773 67.417 C 391.203 67.783,391.973 68.475,392.485 68.955 C 392.998 69.434,393.473 69.828,393.542 69.830 C 393.727 69.835,393.698 42.872,393.513 42.806 C 393.428 42.775,392.682 42.094,391.855 41.292 C 390.148 39.636,390.234 39.686,390.121 40.276 M390.082 74.364 L 389.959 76.732 390.438 77.133 C 390.701 77.354,391.492 78.052,392.196 78.684 C 392.899 79.316,393.518 79.833,393.571 79.833 C 393.624 79.833,393.667 78.791,393.667 77.517 L 393.667 75.201 393.042 74.664 C 392.698 74.368,391.919 73.647,391.311 73.061 L 390.204 71.996 390.082 74.364 M390.164 81.512 L 390.162 83.917 391.873 85.533 L 393.583 87.149 393.630 84.784 C 393.671 82.676,393.644 82.396,393.380 82.205 C 393.217 82.087,392.427 81.341,391.625 80.548 L 390.167 79.106 390.164 81.512 M390.127 88.612 L 390.044 90.917 391.727 92.625 C 392.653 93.565,393.468 94.333,393.538 94.333 C 393.609 94.333,393.667 93.296,393.667 92.028 L 393.667 89.723 392.685 88.736 C 392.145 88.194,391.367 87.425,390.957 87.029 L 390.211 86.307 390.127 88.612 M390.161 94.792 C 390.159 95.410,390.113 96.417,390.061 97.028 L 389.966 98.139 391.637 99.820 C 393.755 101.950,393.667 101.975,393.667 99.248 L 393.667 96.995 391.998 95.331 C 390.015 93.354,390.168 93.399,390.161 94.792 M390.140 102.625 C 390.086 105.844,389.971 105.435,391.262 106.623 C 391.897 107.207,392.698 107.912,393.042 108.190 L 393.667 108.695 393.667 106.469 L 393.667 104.244 392.039 102.622 C 390.057 100.648,390.173 100.648,390.140 102.625 M390.167 110.478 L 390.167 112.790 391.875 114.347 L 393.583 115.905 393.630 113.669 L 393.677 111.433 392.050 109.800 C 391.155 108.902,390.365 108.167,390.295 108.167 C 390.224 108.167,390.167 109.207,390.167 110.478 M27.336 117.175 L 27.338 119.750 28.044 120.363 C 28.432 120.700,29.162 121.356,29.667 121.819 C 30.883 122.937,30.837 123.000,30.811 120.292 L 30.788 117.917 29.061 116.259 L 27.333 114.601 27.336 117.175 M27.333 124.382 L 27.333 126.764 28.934 128.257 C 29.815 129.078,30.603 129.775,30.684 129.806 C 30.767 129.836,30.833 128.838,30.833 127.552 L 30.833 125.244 29.205 123.622 C 28.310 122.730,27.522 122.000,27.455 122.000 C 27.388 122.000,27.333 123.072,27.333 124.382 M27.337 131.417 L 27.333 133.917 28.958 135.456 C 29.852 136.303,30.640 136.997,30.708 136.998 C 30.777 136.999,30.833 135.953,30.833 134.674 L 30.833 132.348 29.854 131.341 C 29.315 130.787,28.830 130.333,28.776 130.333 C 28.723 130.333,28.378 130.015,28.010 129.625 L 27.342 128.917 27.337 131.417 M27.333 138.705 L 27.333 141.077 28.935 142.622 C 31.031 144.644,30.964 144.673,30.869 141.816 L 30.791 139.465 29.202 137.899 C 28.328 137.038,27.550 136.333,27.473 136.333 C 27.396 136.333,27.333 137.401,27.333 138.705 M27.333 145.980 L 27.333 148.294 28.020 148.980 C 28.397 149.358,28.741 149.667,28.784 149.667 C 28.827 149.667,29.258 150.079,29.743 150.583 C 30.892 151.779,30.833 151.858,30.833 149.120 L 30.833 146.740 29.902 145.787 C 29.390 145.262,28.921 144.833,28.860 144.833 C 28.798 144.833,28.529 144.571,28.262 144.250 C 27.418 143.238,27.333 143.396,27.333 145.980 M27.333 152.887 L 27.333 155.321 28.970 156.994 C 29.870 157.914,30.658 158.667,30.720 158.667 C 30.782 158.667,30.833 157.629,30.833 156.361 L 30.833 154.056 29.083 152.254 L 27.333 150.452 27.333 152.887 M15.842 188.302 C 14.748 188.838,14.500 189.191,14.500 190.216 C 14.500 190.818,14.412 191.231,14.250 191.393 C 14.112 191.530,14.000 191.687,14.000 191.741 C 14.000 191.889,12.411 193.595,11.000 194.960 L 9.750 196.170 9.750 222.144 L 9.750 248.119 9.125 248.763 C 7.690 250.241,8.557 252.937,10.564 253.238 C 13.133 253.624,14.804 250.097,12.727 248.674 L 12.167 248.290 12.167 222.804 L 12.167 197.318 14.125 195.349 C 16.070 193.393,16.089 193.380,16.876 193.372 C 18.712 193.353,19.796 192.115,19.602 190.260 C 19.404 188.363,17.619 187.433,15.842 188.302 M385.875 193.737 L 384.333 195.273 384.333 208.720 C 384.333 216.116,384.396 222.167,384.472 222.167 C 384.548 222.167,384.988 221.773,385.450 221.292 C 386.603 220.090,387.458 219.333,387.662 219.333 C 387.778 219.333,387.833 214.930,387.833 205.750 C 387.833 194.985,387.790 192.170,387.625 192.184 C 387.510 192.193,386.723 192.892,385.875 193.737 M387.328 224.574 C 387.193 224.706,386.451 225.431,385.677 226.186 L 384.271 227.558 384.197 229.862 C 384.106 232.734,384.115 232.737,386.253 230.550 L 387.833 228.933 387.833 226.633 C 387.833 224.329,387.784 224.126,387.328 224.574 M386.601 232.542 C 386.098 233.023,385.345 233.717,384.928 234.083 L 384.169 234.750 384.168 237.042 C 384.166 239.858,384.130 239.845,386.248 237.810 L 387.833 236.286 387.833 233.976 C 387.833 231.337,387.845 231.351,386.601 232.542 M385.958 240.359 L 384.333 242.035 384.333 244.351 C 384.333 245.624,384.398 246.667,384.477 246.667 C 384.556 246.667,385.343 245.947,386.227 245.068 L 387.833 243.469 387.833 241.068 C 387.833 239.747,387.777 238.670,387.708 238.675 C 387.640 238.679,386.852 239.437,385.958 240.359 M386.496 246.938 C 385.994 247.454,385.302 248.170,384.958 248.528 L 384.333 249.180 384.333 251.423 C 384.333 254.115,384.280 254.090,386.107 252.250 C 386.881 251.471,387.586 250.833,387.674 250.833 C 387.768 250.833,387.833 249.845,387.833 248.417 C 387.833 245.591,387.820 245.577,386.496 246.938 M385.852 254.818 L 384.121 256.464 384.200 258.649 C 384.286 261.018,384.346 261.224,384.811 260.738 C 384.980 260.561,385.298 260.253,385.518 260.053 C 385.737 259.853,385.998 259.591,386.097 259.470 C 386.197 259.349,386.628 258.954,387.056 258.592 L 387.833 257.935 387.833 255.551 C 387.833 254.240,387.777 253.168,387.708 253.169 C 387.640 253.171,386.804 253.913,385.852 254.818 M385.874 261.960 L 384.164 263.583 384.165 265.875 C 384.167 268.664,384.097 268.638,386.213 266.623 L 387.833 265.080 387.833 262.706 C 387.833 261.401,387.777 260.334,387.708 260.335 C 387.640 260.337,386.814 261.068,385.874 261.960 M44.714 284.849 C 43.144 285.854,43.095 287.671,44.602 288.994 C 45.979 290.203,48.333 288.928,48.333 286.973 C 48.333 285.150,46.199 283.898,44.714 284.849 M52.143 284.850 C 49.969 286.145,50.753 289.333,53.245 289.333 C 54.175 289.333,54.991 288.823,55.435 287.964 C 56.441 286.020,54.021 283.731,52.143 284.850 M59.487 284.879 C 57.929 285.929,57.802 287.678,59.193 288.936 C 60.894 290.476,63.936 288.094,62.906 286.029 C 62.203 284.620,60.647 284.097,59.487 284.879 M66.790 284.921 C 65.374 285.884,65.302 287.586,66.627 288.792 C 67.799 289.858,69.620 289.399,70.256 287.876 C 71.124 285.800,68.629 283.672,66.790 284.921 M74.083 284.946 C 72.986 285.903,72.738 286.814,73.270 287.935 C 74.197 289.889,76.594 289.807,77.667 287.783 L 78.064 287.036 77.648 286.228 C 76.824 284.627,75.144 284.022,74.083 284.946 M84.333 300.220 C 84.333 300.536,87.291 303.496,87.631 303.520 C 88.606 303.588,114.333 303.567,114.333 303.499 C 114.333 303.452,113.594 302.646,112.690 301.707 L 111.046 300.000 97.690 300.000 C 86.750 300.000,84.333 300.040,84.333 300.220 M116.500 300.149 C 116.500 300.231,117.218 301.019,118.096 301.899 L 119.691 303.500 122.088 303.500 L 124.486 303.500 123.501 302.458 C 122.959 301.885,122.201 301.098,121.817 300.708 L 121.119 300.000 118.809 300.000 C 117.539 300.000,116.500 300.067,116.500 300.149 M123.748 300.169 C 123.691 300.262,124.343 301.052,125.197 301.925 L 126.750 303.512 129.155 303.464 L 131.560 303.417 130.622 302.417 C 128.954 300.639,128.667 300.306,128.667 300.152 C 128.667 299.939,123.880 299.956,123.748 300.169 M131.000 300.169 C 131.000 300.263,131.442 300.806,131.982 301.378 C 132.521 301.949,133.163 302.658,133.408 302.953 C 133.978 303.639,134.473 303.725,136.870 303.554 L 138.803 303.417 137.610 302.127 C 136.062 300.454,136.000 300.379,136.000 300.174 C 136.000 300.061,135.123 300.000,133.500 300.000 C 131.917 300.000,131.000 300.062,131.000 300.169 M138.375 300.110 C 137.992 300.265,138.158 300.514,139.625 301.993 L 141.083 303.462 142.250 303.505 C 142.892 303.528,144.015 303.537,144.747 303.524 L 146.077 303.500 144.333 301.750 L 142.589 300.000 140.586 300.013 C 139.485 300.020,138.490 300.064,138.375 300.110 M145.174 300.208 C 145.179 300.323,145.373 300.567,145.606 300.750 C 145.840 300.933,146.118 301.180,146.224 301.298 C 147.289 302.482,147.823 303.000,147.980 303.000 C 148.083 303.000,148.167 303.104,148.167 303.232 C 148.167 303.360,148.264 303.502,148.383 303.547 C 148.720 303.677,153.018 303.468,152.964 303.324 C 152.938 303.254,152.244 302.478,151.421 301.599 L 149.925 300.000 147.546 300.000 C 145.750 300.000,145.169 300.051,145.174 300.208 M152.958 300.121 C 152.160 300.205,152.077 300.054,153.958 301.948 L 155.583 303.583 157.875 303.612 C 160.429 303.644,160.536 303.587,159.583 302.712 C 159.262 302.418,159.000 302.132,159.000 302.077 C 159.000 302.022,158.737 301.730,158.417 301.427 C 158.096 301.125,157.833 300.792,157.833 300.689 C 157.833 300.585,157.729 300.500,157.601 300.500 C 157.473 300.500,157.326 300.387,157.273 300.250 C 157.178 300.003,154.772 299.932,152.958 300.121 " stroke="none" fill="#0c6cb4" fill-rule="evenodd"></path><path id="path1" d="M18.793 6.458 C 4.484 20.644,2.591 22.616,2.474 23.462 C 2.414 23.895,2.357 36.652,2.348 51.810 L 2.331 79.371 19.957 96.977 L 37.583 114.583 37.632 148.833 C 37.667 173.312,37.628 183.297,37.497 183.833 C 37.329 184.523,36.608 185.291,28.490 193.423 C 23.637 198.285,19.664 202.335,19.660 202.423 C 19.497 206.236,19.587 269.511,19.755 269.833 C 20.353 270.977,42.406 292.617,43.083 292.724 C 43.450 292.782,69.700 292.832,101.417 292.836 L 159.083 292.842 161.417 295.031 C 162.700 296.235,164.912 298.315,166.332 299.652 C 167.752 300.989,169.365 302.499,169.915 303.006 C 170.466 303.513,172.079 305.022,173.500 306.358 C 174.921 307.694,176.496 309.172,177.000 309.642 L 177.917 310.497 269.602 310.499 L 361.288 310.500 362.093 309.625 C 364.424 307.091,369.336 301.834,369.917 301.251 C 370.895 300.269,377.200 293.542,377.543 293.115 C 377.821 292.769,377.836 290.178,377.842 242.417 C 377.847 198.337,377.878 192.042,378.094 191.750 C 378.229 191.567,382.650 187.094,387.920 181.810 L 397.500 172.203 397.535 107.727 C 397.554 72.264,397.576 42.950,397.585 42.583 C 397.593 42.217,397.557 41.784,397.504 41.622 C 397.451 41.461,391.720 35.629,384.768 28.664 L 372.129 16.000 322.968 16.000 L 273.806 16.000 270.125 19.708 L 266.444 23.417 220.959 23.459 C 195.862 23.483,175.359 23.438,175.218 23.359 C 174.944 23.205,155.883 4.215,154.718 2.935 L 154.019 2.167 88.571 2.167 L 23.122 2.167 18.793 6.458 M119.611 8.517 C 120.986 9.367,121.205 10.970,120.098 12.077 C 119.031 13.145,118.081 13.257,116.937 12.452 C 114.592 10.799,117.168 7.007,119.611 8.517 M127.152 8.516 C 128.572 9.566,128.540 11.232,127.076 12.432 C 125.054 14.088,122.420 11.537,123.817 9.276 C 124.511 8.153,126.155 7.778,127.152 8.516 M134.537 8.576 C 135.664 9.569,135.897 10.500,135.286 11.578 C 133.981 13.883,130.828 13.140,130.836 10.529 C 130.842 8.619,133.182 7.384,134.537 8.576 M142.055 8.823 C 143.299 10.201,142.981 11.996,141.371 12.686 C 140.102 13.230,139.062 12.865,138.459 11.663 C 137.248 9.254,140.280 6.859,142.055 8.823 M149.420 8.855 C 151.689 10.945,148.723 14.249,146.293 12.337 C 145.142 11.432,145.105 10.087,146.198 8.902 C 147.177 7.840,148.302 7.824,149.420 8.855 M23.152 14.074 C 25.527 15.574,24.683 18.600,21.791 18.951 C 21.036 19.042,20.868 19.173,18.208 21.733 C 16.673 23.211,14.949 24.863,14.376 25.404 C 13.804 25.945,13.054 26.797,12.710 27.298 L 12.083 28.207 12.060 49.645 L 12.036 71.083 12.674 71.777 C 14.202 73.436,13.371 75.922,11.223 76.117 C 8.466 76.367,7.061 73.255,9.202 71.640 L 9.583 71.352 9.587 53.885 C 9.589 44.277,9.608 34.289,9.629 31.689 L 9.667 26.961 14.530 22.065 L 19.393 17.168 19.355 16.338 C 19.265 14.357,21.494 13.028,23.152 14.074 M391.855 41.292 C 392.682 42.094,393.428 42.775,393.513 42.806 C 393.698 42.872,393.727 69.835,393.542 69.830 C 393.473 69.828,392.998 69.434,392.485 68.955 C 391.973 68.475,391.203 67.783,390.773 67.417 L 389.993 66.750 390.014 53.734 C 390.034 41.767,390.071 39.833,390.278 39.833 C 390.318 39.833,391.028 40.490,391.855 41.292 M393.042 74.664 L 393.667 75.201 393.667 77.517 C 393.667 78.791,393.624 79.833,393.571 79.833 C 393.518 79.833,392.899 79.316,392.196 78.684 C 391.492 78.052,390.701 77.354,390.438 77.133 L 389.959 76.732 390.082 74.364 L 390.204 71.996 391.311 73.061 C 391.919 73.647,392.698 74.368,393.042 74.664 M393.380 82.205 C 393.644 82.396,393.671 82.676,393.630 84.784 L 393.583 87.149 391.873 85.533 L 390.162 83.917 390.164 81.512 L 390.167 79.106 391.625 80.548 C 392.427 81.341,393.217 82.087,393.380 82.205 M392.685 88.736 L 393.667 89.723 393.667 92.028 C 393.667 93.296,393.609 94.333,393.538 94.333 C 393.468 94.333,392.653 93.565,391.727 92.625 L 390.044 90.917 390.127 88.612 L 390.211 86.307 390.957 87.029 C 391.367 87.425,392.145 88.194,392.685 88.736 M391.998 95.331 L 393.667 96.995 393.667 99.248 C 393.667 101.975,393.755 101.950,391.637 99.820 L 389.966 98.139 390.061 97.028 C 390.113 96.417,390.159 95.410,390.161 94.792 C 390.168 93.399,390.015 93.354,391.998 95.331 M392.039 102.622 L 393.667 104.244 393.667 106.469 L 393.667 108.695 393.042 108.190 C 390.884 106.447,390.108 105.578,390.110 104.905 C 390.120 102.405,390.184 101.000,390.289 101.000 C 390.356 101.000,391.143 101.730,392.039 102.622 M392.050 109.800 L 393.677 111.433 393.630 113.669 L 393.583 115.905 391.875 114.347 L 390.167 112.790 390.167 110.478 C 390.167 109.207,390.224 108.167,390.295 108.167 C 390.365 108.167,391.155 108.902,392.050 109.800 M47.524 285.310 C 48.680 286.466,48.699 287.446,47.589 288.604 C 46.274 289.977,44.636 289.713,43.741 287.984 C 42.493 285.569,45.592 283.378,47.524 285.310 M54.873 285.294 C 56.437 286.858,55.439 289.333,53.245 289.333 C 50.753 289.333,49.969 286.145,52.143 284.850 C 53.078 284.293,54.026 284.448,54.873 285.294 M62.035 285.004 C 63.435 286.157,63.539 287.325,62.346 288.487 C 60.841 289.954,59.363 289.739,58.485 287.927 C 57.419 285.727,60.167 283.464,62.035 285.004 M69.167 284.917 C 70.716 285.895,70.867 287.740,69.493 288.897 C 67.667 290.434,64.807 287.980,65.918 285.830 C 66.553 284.603,68.017 284.191,69.167 284.917 M76.574 284.966 C 76.953 285.227,77.409 285.764,77.648 286.228 L 78.064 287.036 77.667 287.783 C 76.594 289.807,74.197 289.889,73.270 287.935 C 72.236 285.757,74.621 283.615,76.574 284.966 " stroke="none" fill="#040c14" fill-rule="evenodd"></path></g></svg>